<svg width="1817" height="332" viewBox="0 0 1817 332" fill="none" xmlns="http://www.w3.org/2000/svg">
<path d="M1808.99 6.17495C1805.76 236.935 773.561 315.086 142.783 328.887L1808.99 304.052V6.17495Z" fill="#373737"/>
<path d="M1808.99 6.17495C1805.76 236.935 773.561 315.086 142.783 328.887M1808.99 6.17495V304.052L142.783 328.887M1808.99 6.17495V4C1809 4.72649 1809 5.45147 1808.99 6.17495ZM142.783 328.887L1 331C45.2607 330.671 92.7594 329.981 142.783 328.887Z" stroke="#232424"/>
<path d="M1814.25 2.63927C1813.68 224.939 1185.46 304.17 801.345 319.878L1814.24 303.5L1814.25 2.63927Z" fill="#4A4A4A"/>
<path d="M1814.25 2.63927C1813.68 224.939 1185.46 304.17 801.345 319.878M1814.25 2.63927L1814.24 303.5L801.345 319.878M1814.25 2.63927L1814.24 0.544175C1814.25 1.24395 1814.25 1.94231 1814.25 2.63927ZM801.345 319.878L715 322.456C741.957 321.969 770.883 321.123 801.345 319.878Z" stroke="#232424"/>
</svg>
